<svg width="124" height="122" viewBox="0 0 124 122" fill="none" xmlns="http://www.w3.org/2000/svg">
<path d="M61.8462 0C27.6916 0 0 27.6916 0 61.8462C0 90.8262 19.9557 115.075 46.8588 121.785C46.5702 120.95 46.3846 119.982 46.3846 118.781V108.21C43.8747 108.21 39.6692 108.21 38.6126 108.21C34.3813 108.21 30.619 106.391 28.7945 103.01C26.7691 99.2528 26.4186 93.5062 21.3988 89.9913C19.9093 88.8214 21.0432 87.4865 22.7594 87.6669C25.929 88.5637 28.5575 90.7386 31.0313 93.9649C33.4948 97.1964 34.6545 97.9282 39.2568 97.9282C41.4885 97.9282 44.8282 97.7994 47.972 97.3046C49.6625 93.0115 52.5847 89.0585 56.1563 87.1928C35.5615 85.0745 25.7332 74.8287 25.7332 60.9185C25.7332 54.9297 28.2843 49.1368 32.6187 44.2561C31.1962 39.4115 29.4078 29.5315 33.165 25.7692C42.4316 25.7692 48.0338 31.7786 49.379 33.4021C53.9968 31.8198 59.0682 30.9231 64.3973 30.9231C69.7367 30.9231 74.8287 31.8198 79.4568 33.4124C80.7865 31.7992 86.3939 25.7692 95.6812 25.7692C99.4538 29.5367 97.6448 39.4578 96.2068 44.2922C100.515 49.1625 103.051 54.94 103.051 60.9185C103.051 74.8184 93.2382 85.0591 72.6744 87.1876C78.3333 90.1408 82.4615 98.4385 82.4615 104.69V118.781C82.4615 119.317 82.343 119.703 82.2812 120.162C106.381 111.715 123.692 88.8317 123.692 61.8462C123.692 27.6916 96.0007 0 61.8462 0Z" fill="#777777"/>
</svg>
