<svg width="134" height="134" viewBox="0 0 134 134" fill="none" xmlns="http://www.w3.org/2000/svg">
<path d="M67 0C30.0572 0 0 30.0572 0 67C0 103.943 30.0572 134 67 134C103.943 134 134 103.943 134 67C134 30.0572 103.943 0 67 0ZM49.8172 20.6154H84.1728C100.279 20.6154 113.385 33.7165 113.385 49.8172V84.1728C113.385 100.279 100.283 113.385 84.1828 113.385H49.8272C33.7215 113.385 20.6154 100.283 20.6154 84.1828V49.8272C20.6154 33.7215 33.7165 20.6154 49.8172 20.6154ZM49.8172 30.9231C39.4012 30.9231 30.9231 39.4061 30.9231 49.8272V84.1828C30.9231 94.5988 39.4061 103.077 49.8272 103.077H84.1828C94.5988 103.077 103.077 94.5939 103.077 84.1728V49.8172C103.077 39.4012 94.5939 30.9231 84.1728 30.9231H49.8172ZM91.058 39.5095C92.9546 39.5095 94.4905 41.0454 94.4905 42.942C94.4905 44.8386 92.9546 46.3846 91.058 46.3846C89.1614 46.3846 87.6154 44.8386 87.6154 42.942C87.6154 41.0454 89.1614 39.5095 91.058 39.5095ZM67 41.2308C81.2092 41.2308 92.7692 52.7908 92.7692 67C92.7692 81.2092 81.2092 92.7692 67 92.7692C52.7908 92.7692 41.2308 81.2092 41.2308 67C41.2308 52.7908 52.7908 41.2308 67 41.2308ZM67 51.5385C62.8993 51.5385 58.9666 53.1674 56.067 56.067C53.1674 58.9666 51.5385 62.8993 51.5385 67C51.5385 71.1007 53.1674 75.0334 56.067 77.933C58.9666 80.8326 62.8993 82.4615 67 82.4615C71.1007 82.4615 75.0334 80.8326 77.933 77.933C80.8326 75.0334 82.4615 71.1007 82.4615 67C82.4615 62.8993 80.8326 58.9666 77.933 56.067C75.0334 53.1674 71.1007 51.5385 67 51.5385Z" fill="#777777"/>
</svg>
