<svg width="134" height="134" viewBox="0 0 134 134" fill="none" xmlns="http://www.w3.org/2000/svg">
<path d="M67 0C104.003 0 134 29.9969 134 67C134 104.003 104.003 134 67 134C29.9969 134 0 104.003 0 67C0 29.9969 29.9969 0 67 0ZM36.0771 50.4648V97.9229H50.0352V50.4648H36.0771ZM58.4102 50.4648V97.9229H72.3682V72.7979C72.3682 71.4328 72.2486 68.7313 72.6504 67.7539C73.7503 65.0237 76.0177 62.1982 80.208 62.1982C85.6989 62.1984 89.1181 66.3857 89.1182 72.5215V97.9229H103.077L103.074 70.7715C103.074 56.7462 95.5842 50.4649 85.5957 50.4648C77.5334 50.4648 74.381 54.6521 72.3682 57.7676V50.4648H58.4102ZM43.0947 30.9229C38.8545 30.9231 36.0772 33.9382 36.0771 37.8994C36.0771 41.777 38.7714 44.8818 42.9365 44.8818H43.0146C47.3415 44.8816 50.0352 41.7741 50.0352 37.8994C49.957 33.9381 47.3408 30.9229 43.0947 30.9229Z" fill="#777777"/>
</svg>
