<svg width="15" height="15" viewBox="0 0 15 15" fill="none" xmlns="http://www.w3.org/2000/svg">
<path d="M5.11366 6.68919H3.75002C3.40485 6.68919 3.12503 6.96781 3.12502 7.313C3.12501 8.34269 3.12497 10.4232 3.12504 11.8243C3.12511 13.3948 5.55384 13.75 7.5 13.75C9.44619 13.75 11.8749 13.3948 11.8749 11.8243C11.875 10.4233 11.875 8.34269 11.8749 7.313C11.8749 6.96781 11.5951 6.68919 11.2499 6.68919H9.88631H5.11366ZM5.11366 6.68919C5.11366 6.68919 5.11368 5.08446 5.11366 4.12162C5.11363 2.96607 6.06801 1.875 7.5 1.875C8.932 1.875 9.88631 2.96607 9.88631 4.12162" stroke="#0C0C0C" stroke-linecap="round" stroke-linejoin="round"/>
<path fill-rule="evenodd" clip-rule="evenodd" d="M8.125 10.3863V11.25C8.125 11.5952 7.84519 11.875 7.5 11.875C7.15481 11.875 6.875 11.5952 6.875 11.25V10.3863C6.68319 10.2146 6.5625 9.96512 6.5625 9.6875C6.5625 9.16975 6.98225 8.75 7.5 8.75C8.01775 8.75 8.4375 9.16975 8.4375 9.6875C8.4375 9.96512 8.31681 10.2146 8.125 10.3863Z" fill="#0C0C0C"/>
</svg>
