<svg width="157" height="26" viewBox="0 0 157 26" fill="none" xmlns="http://www.w3.org/2000/svg">
<path d="M12 1C5.373 1 0 6.373 0 13C0 18.623 3.872 23.328 9.092 24.63C9.036 24.468 9 24.28 9 24.047V21.996C8.513 21.996 7.697 21.996 7.492 21.996C6.671 21.996 5.941 21.643 5.587 20.987C5.194 20.258 5.126 19.143 4.152 18.461C3.863 18.234 4.083 17.975 4.416 18.01C5.031 18.184 5.541 18.606 6.021 19.232C6.499 19.859 6.724 20.001 7.617 20.001C8.05 20.001 8.698 19.976 9.308 19.88C9.636 19.047 10.203 18.28 10.896 17.918C6.9 17.507 4.993 15.519 4.993 12.82C4.993 11.658 5.488 10.534 6.329 9.587C6.053 8.647 5.706 6.73 6.435 6C8.233 6 9.32 7.166 9.581 7.481C10.477 7.174 11.461 7 12.495 7C13.531 7 14.519 7.174 15.417 7.483C15.675 7.17 16.763 6 18.565 6C19.297 6.731 18.946 8.656 18.667 9.594C19.503 10.539 19.995 11.66 19.995 12.82C19.995 15.517 18.091 17.504 14.101 17.917C15.199 18.49 16 20.1 16 21.313V24.047C16 24.151 15.977 24.226 15.965 24.315C20.641 22.676 24 18.236 24 13C24 6.373 18.627 1 12 1Z" fill="#777777"/>
<path d="M56 1C49.373 1 44 6.373 44 13C44 19.627 49.373 25 56 25C62.627 25 68 19.627 68 13C68 6.373 62.627 1 56 1ZM62.464 10.535C62.47 10.668 62.473 10.8 62.473 10.932C62.473 15 59.378 19.688 53.717 19.688C51.978 19.688 50.361 19.179 49 18.305C49.241 18.334 49.486 18.347 49.735 18.347C51.178 18.347 52.504 17.856 53.556 17.029C52.209 17.004 51.072 16.114 50.681 14.892C50.869 14.928 51.062 14.947 51.26 14.947C51.541 14.947 51.814 14.909 52.071 14.839C50.663 14.557 49.602 13.313 49.602 11.822C49.602 11.809 49.602 11.796 49.602 11.783C50.017 12.014 50.491 12.152 50.996 12.168C50.171 11.617 49.627 10.674 49.627 9.607C49.627 9.042 49.778 8.513 50.043 8.06C51.561 9.922 53.829 11.148 56.386 11.276C56.334 11.051 56.307 10.816 56.307 10.575C56.307 8.876 57.685 7.497 59.384 7.497C60.269 7.497 61.069 7.871 61.63 8.469C62.331 8.33 62.99 8.075 63.585 7.722C63.355 8.441 62.867 9.043 62.231 9.425C62.853 9.351 63.446 9.186 63.999 8.941C63.588 9.559 63.067 10.1 62.464 10.535Z" fill="#777777"/>
<rect x="88" y="2" width="22.5" height="22.5" rx="11.25" fill="#777777"/>
<path d="M93 10.7917H95.7083V20H93V10.7917ZM94.346 9.70833H94.3309C93.5227 9.70833 93 9.106 93 8.35362C93 7.585 93.539 7 94.3618 7C95.1856 7 95.6932 7.585 95.7083 8.35362C95.7083 9.10546 95.1856 9.70833 94.346 9.70833ZM106 20H103.292V15.0714C103.292 13.8808 102.628 13.0683 101.563 13.0683C100.75 13.0683 100.31 13.6165 100.096 14.1462C100.018 14.3358 100.042 14.8601 100.042 15.125V20H97.3333V10.7917H100.042V12.2087C100.432 11.6042 101.044 10.7917 102.608 10.7917C104.546 10.7917 105.999 12.0104 105.999 14.7318L106 20Z" fill="#151515"/>
<path d="M143.5 0C136.332 0 130.5 5.832 130.5 13C130.5 20.168 136.332 26 143.5 26C150.668 26 156.5 20.168 156.5 13C156.5 5.832 150.668 0 143.5 0ZM140.166 4H146.832C149.957 4 152.5 6.54202 152.5 9.66602V16.332C152.5 19.457 149.958 22 146.834 22H140.168C137.043 22 134.5 19.458 134.5 16.334V9.66797C134.5 6.54297 137.042 4 140.166 4ZM140.166 6C138.145 6 136.5 7.64597 136.5 9.66797V16.334C136.5 18.355 138.146 20 140.168 20H146.834C148.855 20 150.5 18.354 150.5 16.332V9.66602C150.5 7.64502 148.854 6 146.832 6H140.166ZM148.168 7.66602C148.536 7.66602 148.834 7.96403 148.834 8.33203C148.834 8.70003 148.536 9 148.168 9C147.8 9 147.5 8.70003 147.5 8.33203C147.5 7.96403 147.8 7.66602 148.168 7.66602ZM143.5 8C146.257 8 148.5 10.243 148.5 13C148.5 15.757 146.257 18 143.5 18C140.743 18 138.5 15.757 138.5 13C138.5 10.243 140.743 8 143.5 8ZM143.5 10C142.704 10 141.941 10.3161 141.379 10.8787C140.816 11.4413 140.5 12.2044 140.5 13C140.5 13.7956 140.816 14.5587 141.379 15.1213C141.941 15.6839 142.704 16 143.5 16C144.296 16 145.059 15.6839 145.621 15.1213C146.184 14.5587 146.5 13.7956 146.5 13C146.5 12.2044 146.184 11.4413 145.621 10.8787C145.059 10.3161 144.296 10 143.5 10Z" fill="#777777"/>
</svg>
