<svg width="124" height="124" viewBox="0 0 124 124" fill="none" xmlns="http://www.w3.org/2000/svg">
<path d="M61.8462 0C27.6916 0 0 27.6916 0 61.8462C0 96.0007 27.6916 123.692 61.8462 123.692C96.0007 123.692 123.692 96.0007 123.692 61.8462C123.692 27.6916 96.0007 0 61.8462 0ZM95.1606 49.1419C95.1915 49.8274 95.207 50.5077 95.207 51.188C95.207 72.1538 79.2558 96.3151 50.0799 96.3151C41.1174 96.3151 32.7836 93.6918 25.7692 89.1873C27.0113 89.3368 28.274 89.4038 29.5573 89.4038C36.9943 89.4038 43.8283 86.8732 49.2502 82.611C42.3079 82.4822 36.448 77.8952 34.4328 71.5972C35.4018 71.7828 36.3965 71.8807 37.4169 71.8807C38.8652 71.8807 40.2722 71.6849 41.5967 71.3241C34.3401 69.8707 28.8718 63.4593 28.8718 55.7749C28.8718 55.7079 28.8718 55.6409 28.8718 55.5739C31.0107 56.7645 33.4536 57.4757 36.0563 57.5582C31.8044 54.7184 29.0007 49.8583 29.0007 44.3592C29.0007 41.4472 29.7789 38.7208 31.1447 36.3862C38.9682 45.9826 50.6572 52.3012 63.8355 52.9609C63.5675 51.8013 63.4284 50.5902 63.4284 49.3481C63.4284 40.5917 70.5304 33.4845 79.2868 33.4845C83.8479 33.4845 87.971 35.4121 90.8623 38.4941C94.4752 37.7777 97.8715 36.4635 100.938 34.6442C99.7527 38.3498 97.2376 41.4524 93.9598 43.4212C97.1655 43.0398 100.222 42.1894 103.072 40.9267C100.954 44.1118 98.2684 46.9 95.1606 49.1419Z" fill="#777777"/>
</svg>
